<svg xmlns="http://www.w3.org/2000/svg" width="200" height="80" viewBox="0 0 200 80">
  <g id="muli-logo" transform="translate(-860 -215)">
    <rect id="Rectangle_4189" data-name="Rectangle 4189" width="200" height="80" transform="translate(860 215)" fill="none"/>
    <path id="muli-logo-2" data-name="muli-logo" d="M2203.835,73a23.535,23.535,0,0,1-22.888-23.665V23.75h14.44V49.714c0,5.42,3.969,9.83,8.846,9.83s8.846-4.41,8.846-9.83V23.75h14.439V49.714A23.285,23.285,0,0,1,2204.232,73C2204.1,73,2203.968,73,2203.835,73Zm64.541-.81V23.7h14.44V72.187Zm-113.153,0v-37.2l-15.649,37.119a.134.134,0,0,1-.123.081h-9.483a.133.133,0,0,1-.122-.08L2114.1,35.465V72.187H2101V4.1h11.858l22,50.206,21.8-50.206h11.763V72.187Zm98.4-.915h-14.517V13.584h-26.125V.044h40.642V56.821h10.214v14.45Zm-73.264-57.645V.048h15.4V13.627Zm87.536-.048V0h15.4V13.579Z" transform="translate(-1233 218)" fill="#006cff" stroke="rgba(0,0,0,0)" stroke-width="1"/>
  </g>
</svg>
