<svg xmlns="http://www.w3.org/2000/svg" width="106" height="51" viewBox="0 0 106 51">
  <g id="Group_3625" data-name="Group 3625" transform="translate(-75 -7)">
    <g id="muli-logo" transform="translate(-785 -208)">
      <rect id="Rectangle_4189" data-name="Rectangle 4189" width="106" height="42" transform="translate(860 215)" fill="none"/>
      <path id="muli-logo-2" data-name="muli-logo" d="M54.306,38.549a12.429,12.429,0,0,1-12.087-12.5V12.542h7.626V26.254a4.958,4.958,0,0,0,4.671,5.191,4.958,4.958,0,0,0,4.672-5.191V12.542h7.625V26.254a12.3,12.3,0,0,1-12.3,12.3Zm34.083-.428v-25.6h7.626v25.6Zm-59.755,0V18.476l-8.264,19.6a.071.071,0,0,1-.065.043H15.3a.07.07,0,0,1-.064-.042L6.919,18.729V38.121H0V2.164H6.262L17.878,28.678,29.392,2.164H35.6V38.121ZM80.6,37.638H72.934V7.173h-13.8V.023H80.6V30.007h5.394v7.631ZM41.91,7.2V.025h8.131V7.2Zm46.227-.025V0h8.131V7.171Z" transform="translate(864.225 216.584)" fill="#fff" stroke="rgba(0,0,0,0)" stroke-width="1"/>
    </g>
    <text id="ObinnaPro_Company" data-name="ObinnaPro Company" transform="translate(127 56)" fill="#fff" font-size="9" font-family="Montserrat-Medium, Montserrat" font-weight="500"><tspan x="-47.988" y="0">ObinnaPro Company</tspan></text>
  </g>
</svg>
