<svg xmlns="http://www.w3.org/2000/svg" width="20" height="18.001" viewBox="0 0 20 18.001">
  <g id="shopping-cart" transform="translate(-2 -3)">
    <path id="Path_2883" data-name="Path 2883" d="M5.508,12.591l0-.017-1.22-7.32A1.5,1.5,0,0,0,2.805,4H2.5a.5.5,0,0,1,0-1h.306a2.5,2.5,0,0,1,2.45,2H21.5a.5.5,0,0,1,.48.637l-2,7A.5.5,0,0,1,19.5,13H6.59l.125.747A1.5,1.5,0,0,0,8.2,15H19.5a.5.5,0,0,1,0,1H8.194a2.5,2.5,0,0,1-2.466-2.089l-.22-1.32ZM5.424,6l1,6h12.7l1.714-6ZM8,21a2,2,0,1,1,2-2A2,2,0,0,1,8,21Zm0-1a1,1,0,1,0-1-1A1,1,0,0,0,8,20Zm9,1a2,2,0,1,1,2-2A2,2,0,0,1,17,21Zm0-1a1,1,0,1,0-1-1A1,1,0,0,0,17,20Z" transform="translate(0 0)" fill="#111"/>
  </g>
</svg>
